# AST/ASF file generated using VICON BodyLanguage
# -----------------------------------------------
:version 1.10
:name VICON
:units
  mass 1.0
  length 0.45
  angle deg
:documentation
   .ast/.asf automatically generated from VICON data using
   VICON BodyBuilder and BodyLanguage model FoxedUp or BRILLIANT.MOD
:root
   order TX TY TZ RX RY RZ
   axis XYZ
   position 0 0 0  
   orientation 0 0 0 
:bonedata
  begin
     id 1 
     name lhipjoint
     direction 0.63403 -0.759788 0.143974 
     length 2.51904 
     axis 0 0 0  XYZ
  end
  begin
     id 2 
     name lfemur
     direction 0.34202 -0.939693 0  
     length 7.42313  
     axis 0 0 20  XYZ
    dof rx ry rz
    limits (-160.0 20.0)
           (-70.0 70.0)
           (-60.0 70.0)
  end
  begin
     id 3 
     name ltibia
     direction 0.34202 -0.939693 0   
     length 8.10141   
     axis 0 0 20   XYZ
    dof rx
    limits (-10.0 170.0)
  end
  begin
     id 4 
     name lfoot
     direction 0.0927455 -0.254816 0.962532   
     length 2.14078   
     axis -90 7.62852e-016 20   XYZ
    dof rx rz
    limits (-45.0 90.0)
           (-70.0 20.0)
  end
  begin
     id 5 
     name ltoes
     direction 1.53556e-011 -4.21949e-011 1   
     length 1.07182   
     axis -90 7.62852e-016 20   XYZ
    dof rx
    limits (-90.0 20.0)
  end
  begin
     id 6 
     name rhipjoint
     direction -0.659892 -0.738223 0.139888   
     length 2.59263  
     axis 0 0 0  XYZ 
  end
  begin
     id 7 
     name rfemur
     direction -0.34202 -0.939693 0   
     length 7.58575   
     axis 0 0 -20   XYZ
    dof rx ry rz
    limits (-160.0 20.0)
           (-70.0 70.0)
           (-70.0 60.0)
  end
  begin
     id 8 
     name rtibia
     direction -0.34202 -0.939693 0   
     length 8.19358   
     axis 0 0 -20   XYZ
    dof rx
    limits (-10.0 170.0)
 end
 begin
     id 9 
     name rfoot
     direction -0.0856543 -0.235333 0.968133   
     length 2.13415  
     axis -90 -7.62852e-016 -20   XYZ
    dof rx rz
    limits (-45.0 90.0)
           (-20.0 70.0)
  end
  begin
     id 10 
     name rtoes
     direction -1.53551e-011 -4.21811e-011 1   
     length 1.07055   
     axis -90 -7.62852e-016 -20   XYZ
    dof rx
    limits (-90.0 20.0)
  end
  begin
     id 11 
     name lowerback
     direction 0.025219 0.998394 -0.0507326   
     length 1.91844   
     axis 0 0 0   XYZ
    dof rx ry rz
    limits (-20.0 45.0)
           (-30.0 30.0)
           (-30.0 30.0)
  end
  begin
     id 12 
     name upperback
     direction 0.0213103 0.99967 -0.0143101   
     length 1.92246   
     axis 0 0 0   XYZ
    dof rx ry rz
    limits (-20.0 45.0)
           (-30.0 30.0)
           (-30.0 30.0)
  end
  begin
     id 13 
     name thorax
     direction 0.00920974 0.99991 0.00971518   
     length 1.92239   
     axis 0 0 0   XYZ
    dof rx ry rz
    limits (-20.0 45.0)
           (-30.0 30.0)
           (-30.0 30.0)
  end
  begin
     id 14 
     name lowerneck
     direction 0.0598257 0.997249 0.0437612   
     length 3.13679   
     axis 0 0 0   XYZ
    dof rx ry rz
    limits (-20.0 45.0)
           (-30.0 30.0)
           (-30.0 30.0)
  end
  begin
     id 15 
     name upperneck
     direction -0.035342 0.999338 0.00863891   
     length 3.16283   
     axis 0 0 0   XYZ
    dof rx ry rz
    limits (-20.0 45.0)
           (-30.0 30.0)
           (-30.0 30.0)
  end
  begin
     id 16
     name head
     direction 0.37144 0.811566 0.450991  
     length 1.2838  
     axis 0 0 0   XYZ
    dof rx ry rz
    limits (-20.0 45.0)
           (-30.0 30.0)
           (-30.0 30.0)
  end
  begin
     id 17 
     name lclavicle
     direction 0.961094 0.274654 -0.0293862  
     length 3.63466  
     axis 0 0 0   XYZ
    dof ry rz
    limits (-20.0 10.0)
           (0.0 20.0)
  end
  begin
     id 18 
     name lhumerus
     direction 1 -4.48963e-011 1.10303e-027   
     length 5.12842   
     axis 180 -30 -90   XYZ
    dof rx ry rz
    limits (-60.0 90.0)
           (-90.0 90.0)
           (-90.0 90.0)
  end
  begin
     id 19
     name lradius
     direction 1 -4.48968e-011 4.13199e-027   
     length 3.47396   
     axis 180 -30 -90   XYZ
    dof rx
    limits (-10.0 170.0)
  end
  begin
     id 20
     name lwrist
     direction 1 -4.48948e-011 9.12708e-027   
     length 1.73698   
     axis -6.84618e-015 90 90   XYZ
    dof ry
    limits (-180.0 0.0)
 end
  begin
     id 21 
     name lhand
     direction 1 -4.49057e-011 1.82749e-026   
     length 0.728607   
     axis -1.16502e-014 90 90   XYZ
    dof rx rz
    limits (-90.0 90.0)
           (-45.0 45.0)
  end
  begin
     id 22 
     name lfingers
     direction 1 -4.48912e-011 3.64949e-026   
     length 0.587422   
     axis -2.33008e-014 90 90   XYZ
    dof rx
    limits (0.0 90.0)
  end
  begin
     id 23
     name lthumb
     direction 0.707107 -6.34995e-011 0.707107   
     length 0.843424   
     axis -90 45 5.69224e-014   XYZ
    dof rx rz
    limits (-45.0 45.0)
           (-45.0 45.0)
  end
  begin
     id 24 
     name rclavicle
     direction -0.90514 0.421881 -0.0523369   
     length 3.57139  
     axis 0 0 0   XYZ 
    dof ry rz
    limits (-10.0 20.0)
           (-20.0 0.0)
  end
  begin
     id 25 
     name rhumerus
     direction -1 -4.48954e-011 -1.76662e-027  
     length 5.48477   
     axis 180 30 90   XYZ
    dof rx ry rz
    limits (-90.0 60.0)
           (-90.0 90.0)
           (-90.0 90.0)
  end
  begin
     id 26 
     name rradius
     direction -1 -4.48982e-011 1.26841e-027   
     length 3.47856   
     axis 180 30 90   XYZ
    dof rx
    limits (-10.0 170.0)
  end
  begin
     id 27 
     name rwrist
     direction -1 -4.49037e-011 9.13554e-027   
     length 1.73928   
     axis -6.84618e-015 -90 -90   XYZ
    dof ry
    limits (-180.0 0.0)
  end
  begin
     id 28
     name rhand
     direction -1 -4.48871e-011 1.82397e-026   
     length 0.709974   
     axis -1.16502e-014 -90 -90   XYZ
    dof rx rz
    limits (-90.0 90.0)
           (-45.0 45.0)
  end
  begin
     id 29
     name rfingers
     direction -1 -4.48994e-011 3.65258e-026   
     length 0.572399   
     axis -2.33008e-014 -90 -90   XYZ
    dof rx
    limits (0.0 90.0)
  end
  begin
     id 30
     name rthumb
     direction -0.707107 -6.34861e-011 0.707107   
     length 0.821855   
     axis -90 -45 -5.69224e-014   XYZ
    dof rx rz
    limits (-45.0 45.0)
           (-45.0 45.0)
  end
:hierarchy
  begin
    root lhipjoint rhipjoint lowerback
    lhipjoint lfemur
    lfemur ltibia
    ltibia lfoot
    lfoot ltoes
    rhipjoint rfemur
    rfemur rtibia
    rtibia rfoot
    rfoot rtoes
    lowerback upperback
    upperback thorax
    thorax lowerneck lclavicle rclavicle
    lowerneck upperneck
    upperneck head
    lclavicle lhumerus
    lhumerus lradius
    lradius lwrist
    lwrist lhand lthumb
    lhand lfingers
    rclavicle rhumerus
    rhumerus rradius
    rradius rwrist
    rwrist rhand rthumb
    rhand rfingers
  end

#!OML:ASF F:\VICON\USERDATA\INSTALL\Justin1\Justin1.ASF
:FULLY-SPECIFIED
:DEGREES
489
root -3.59512e-007 18.2558 -3.92668 4.17125 0.0300726 -3.15493
lowerback 1.11069 -0.304437 2.42791
upperback -1.33113 -0.299044 3.19291
thorax -1.98524 -0.160087 1.92618
lowerneck -16.5953 -2.70736 -2.41127
upperneck 14.8009 -2.79251 -1.67664
head 7.28447 -1.63456 -0.463557
rclavicle 3.47873e-015 2.06736e-014
rhumerus 31.4022 36.5203 -32.5594
rradius 111.661
rwrist -24.8128
rhand -22.4555 32.1912
rfingers 7.12502
rthumb 3.96896 2.24846
lclavicle 3.47873e-015 2.06736e-014
lhumerus 51.6052 -62.2843 11.9667
lradius 98.5482
lwrist 1.86042
lhand -0.679914 10.1462
lfingers 7.12502
lthumb 24.939 38.5389
rfemur -16.4247 6.69508 27.3216
rtibia 32.9172
rfoot -16.5995 -15.9924
rtoes 26.68
lfemur -13.5343 -8.96828 -18.4642
ltibia 28.7627
lfoot -16.5887 8.11102
ltoes 7.32327
490
root 0.00414067 18.2576 -3.92756 4.16008 0.0275725 -3.05669
lowerback 1.13715 -0.313812 2.41322
upperback -1.33791 -0.312253 3.08681
thorax -2.00723 -0.167402 1.82568
lowerneck -16.1831 -2.73893 -2.4477
upperneck 14.3524 -2.92135 -1.25553
head 7.074 -1.65433 -0.323561
rclavicle -5.39203e-015 0
rhumerus 31.0941 36.0866 -33.0261
rradius 110.107
rwrist -24.5325
rhand -22.9088 32.0671
rfingers 7.12502
rthumb 3.53119 2.1166
lclavicle -5.39203e-015 0
lhumerus 51.0443 -62.4491 12.6276
lradius 99.9605
lwrist 2.23418
lhand 0.331313 7.39069
lfingers 7.12502
lthumb 25.9077 35.6455
rfemur -16.4112 6.62604 27.1965
rtibia 32.9176
rfoot -16.5977 -15.9312
rtoes 26.7166
lfemur -13.487 -8.97599 -18.5986
ltibia 28.7078
lfoot -16.5644 8.14742
ltoes 7.18063
491
root 0.00438466 18.2585 -3.92832 4.17317 -0.00835223 -2.98072
lowerback 1.13002 -0.321126 2.28923
upperback -1.33013 -0.325277 3.08681
thorax -1.99421 -0.172039 1.8954
lowerneck -16.2721 -2.80977 -2.48984
upperneck 14.3015 -3.03847 -1.06589
head 7.07665 -1.6949 -0.268599
rclavicle 2.16178e-015 1.43125e-014
rhumerus 31.0517 35.93 -32.8205
rradius 108.381
rwrist -24.3462
rhand -23.4858 32.5727
rfingers 7.12502
rthumb 2.97398 2.61372
lclavicle 2.16178e-015 1.43125e-014
lhumerus 50.722 -62.7582 13.0459
lradius 101.959
lwrist 1.45408
lhand -0.141467 8.79048
lfingers 7.12502
lthumb 25.4549 37.1106
rfemur -16.4381 6.61938 27.1013
rtibia 32.9299
rfoot -16.6246 -15.8571
rtoes 26.8992
lfemur -13.4732 -8.91455 -18.6946
ltibia 28.6596
lfoot -16.5761 8.19759
ltoes 6.84814
492
root 0.00450967 18.2578 -3.92806 4.17785 -0.039275 -2.97703
lowerback 1.03102 -0.401696 2.37614
upperback -1.24755 -0.439784 3.03055
thorax -1.85285 -0.230268 1.79029
lowerneck -16.5146 -2.81944 -2.46572
upperneck 14.2825 -3.08413 -0.868641
head 7.11457 -1.69698 -0.216751
rclavicle -3.8266e-015 1.98785e-014
rhumerus 31.2491 36.0183 -32.5846
rradius 106.576
rwrist -23.9137
rhand -23.899 32.8988
rfingers 7.12502
rthumb 2.57495 2.9346
lclavicle -3.8266e-015 1.98785e-014
lhumerus 49.563 -62.5318 14.1685
lradius 103.891
lwrist 1.68266
lhand -0.266608 9.12934
lfingers 7.12502
lthumb 25.335 37.4665
rfemur -16.459 6.6105 27.0927
rtibia 32.9463
rfoot -16.551 -15.8601
rtoes 26.5311
lfemur -13.464 -8.94454 -18.7028
ltibia 28.6405
lfoot -16.5414 8.21624
ltoes 7.15483
493
root 0.0025822 18.2573 -3.92884 4.18708 -0.100334 -3.00671
lowerback 0.954507 -0.418608 2.48389
upperback -1.18962 -0.467827 2.92456
thorax -1.75162 -0.245888 1.62028
lowerneck -16.3355 -2.82508 -2.43043
upperneck 13.9602 -3.16992 -0.511551
head 6.98452 -1.70135 -0.110017
rclavicle -5.11871e-015 -3.97569e-015
rhumerus 31.2331 36.2673 -32.4766
rradius 104.846
rwrist -23.2555
rhand -24.0644 32.4989
rfingers 7.12502
rthumb 2.41519 2.53279
lclavicle -5.11871e-015 -3.97569e-015
lhumerus 48.6233 -62.2309 15.1876
lradius 105.695
lwrist 1.70586
lhand -0.711203 8.95826
lfingers 7.12502
lthumb 24.909 37.3551
rfemur -16.4807 6.70028 27.122
rtibia 32.9556
rfoot -16.5258 -15.8705
rtoes 26.6998
lfemur -13.4788 -8.9225 -18.6679
ltibia 28.6693
lfoot -16.5127 8.23497
ltoes 7.24889
